<?xml version="1.0" encoding="UTF-8"?>
<svg id="Layer_2" data-name="Layer 2" xmlns="http://www.w3.org/2000/svg" viewBox="0 0 655.38 221.16">
  <defs>
    <style>
      .cls-1 {
        fill: #820000;
      }

      .cls-2 {
        fill: #686d76;
      }

      .cls-3 {
        fill: #028391;
      }

      .cls-4 {
        fill: #cd5c08;
      }

      .cls-5 {
        fill: #2e5a1c;
      }

      .cls-6 {
        fill: #864af9;
      }

      .cls-7 {
        fill: #799351;
      }

      .cls-8 {
        fill: #240750;
      }
    </style>
  </defs>
  <g id="Layer_1-2" data-name="Layer 1">
    <g>
      <g>
        <path d="M242.38,127.16v47h10v47h-58v-94h48ZM222.38,146.16h-8v19h8v-19ZM232.38,184.16h-18v18h18v-18Z"/>
        <path d="M645.38,127.16v47h10v47h-58v-94h48ZM625.38,146.16h-8v19h8v-19ZM635.38,184.16h-18v18h18v-18Z"/>
        <path d="M590.38,127.16v94h-20v-37h-18v37h-20v-94h58ZM570.38,146.16h-18v19h18v-19Z"/>
        <polygon points="439.38 127.16 439.38 146.16 411.38 146.16 411.38 165.16 439.38 165.16 439.38 184.16 411.38 184.16 411.38 202.16 439.38 202.16 439.38 221.16 391.38 221.16 391.38 127.16 439.38 127.16"/>
        <polygon points="280.38 127.16 280.38 164.16 298.38 164.16 298.38 127.16 318.38 127.16 318.38 184.16 299.38 184.16 299.38 221.16 279.38 221.16 279.38 184.16 260.38 184.16 260.38 127.16 280.38 127.16"/>
        <polygon points="383.38 127.16 383.38 146.16 364.38 146.16 364.38 221.16 344.38 221.16 344.38 146.16 325.38 146.16 325.38 127.16 383.38 127.16"/>
        <polygon points="495.38 127.16 495.38 202.16 523.38 202.16 523.38 221.16 475.38 221.16 475.38 127.16 495.38 127.16"/>
      </g>
      <g>
        <rect class="cls-3" x=".54" width="32.29" height="32.29"/>
        <rect class="cls-5" y="62.96" width="32.29" height="32.29"/>
        <rect class="cls-8" x="62.96" y="125.92" width="32.29" height="32.29"/>
        <rect class="cls-2" y="125.92" width="32.29" height="32.29"/>
        <rect class="cls-7" x=".54" y="188.87" width="32.29" height="32.29"/>
        <rect class="cls-1" x="126.45" y="188.87" width="32.29" height="32.29"/>
        <rect class="cls-4" x="63.5" y="188.87" width="32.29" height="32.29"/>
        <rect class="cls-6" x="125.92" y="125.92" width="32.29" height="32.29"/>
      </g>
    </g>
  </g>
</svg>